<?xml version="1.0" encoding="UTF-8" standalone="no"?>
<!DOCTYPE svg PUBLIC "-//W3C//DTD SVG 1.1//EN" "http://www.w3.org/Graphics/SVG/1.1/DTD/svg11.dtd">
<svg xmlns="http://www.w3.org/2000/svg" version="1.1" viewBox="0.00 0.00 500.00 500.00">
<path fill="#322964" d="
  M 304.78 195.55
  L 394.76 247.67
  A 0.47 0.47 0.0 0 1 394.99 248.08
  L 395.00 271.68
  A 0.47 0.47 0.0 0 1 394.77 272.09
  L 177.77 397.48
  A 0.47 0.47 0.0 0 1 177.29 397.48
  L 129.09 369.54
  A 0.47 0.47 0.0 0 1 128.86 369.13
  L 128.82 349.87
  A 0.47 0.47 0.0 0 1 129.53 349.46
  L 177.29 376.99
  A 0.47 0.47 0.0 0 0 177.76 376.99
  L 317.03 296.46
  A 0.47 0.47 0.0 0 0 317.02 295.65
  L 205.87 232.80
  A 0.47 0.47 0.0 0 0 205.17 233.21
  L 205.17 267.15
  A 0.47 0.47 0.0 0 0 205.41 267.56
  L 257.76 297.77
  A 0.47 0.47 0.0 0 1 257.76 298.59
  L 177.78 343.95
  A 0.47 0.47 0.0 0 1 177.32 343.95
  L 129.03 316.11
  A 0.47 0.47 0.0 0 1 128.79 315.70
  L 128.79 52.97
  A 0.47 0.47 0.0 0 1 129.02 52.56
  L 204.14 8.45
  A 0.47 0.47 0.0 0 1 204.62 8.45
  L 394.75 118.37
  A 0.47 0.47 0.0 0 1 394.98 118.78
  L 395.00 142.40
  A 0.47 0.47 0.0 0 1 394.76 142.81
  L 304.78 194.73
  A 0.47 0.47 0.0 0 0 304.78 195.55
  Z
  M 205.76 102.24
  A 0.38 0.38 0.0 0 0 205.19 102.57
  L 205.18 137.92
  A 0.38 0.38 0.0 0 0 205.37 138.25
  L 286.23 184.91
  A 0.38 0.38 0.0 0 0 286.61 184.91
  L 317.17 167.14
  A 0.38 0.38 0.0 0 0 317.17 166.48
  L 205.76 102.24
  Z"
/>
<path fill="#7165b1" d="
  M 394.97 293.03
  L 394.97 312.58
  A 0.34 0.34 0.0 0 1 394.80 312.88
  L 177.65 438.36
  A 0.34 0.34 0.0 0 1 177.31 438.36
  L 129.08 410.54
  A 0.34 0.34 0.0 0 1 128.91 410.24
  L 128.93 390.66
  A 0.34 0.34 0.0 0 1 129.44 390.36
  L 177.37 417.96
  A 0.34 0.34 0.0 0 0 177.71 417.96
  L 394.46 292.73
  A 0.34 0.34 0.0 0 1 394.97 293.03
  Z"
/>
<path fill="#7165b1" d="
  M 177.07 458.63
  Q 177.53 458.90 178.00 458.63
  L 394.35 333.62
  Q 394.99 333.25 394.99 333.99
  L 394.98 352.99
  A 1.08 1.07 -15.0 0 1 394.44 353.92
  Q 287.99 415.45 181.64 476.89
  C 179.47 478.14 178.10 479.57 175.50 478.08
  Q 152.58 464.88 129.84 451.56
  A 2.03 2.02 -74.8 0 1 128.83 449.79
  L 128.91 431.25
  Q 128.91 430.87 129.24 431.06
  L 177.07 458.63
  Z"
/>
</svg>
