<?xml version="1.0" encoding="UTF-8" standalone="no"?>
<!DOCTYPE svg PUBLIC "-//W3C//DTD SVG 1.1//EN" "http://www.w3.org/Graphics/SVG/1.1/DTD/svg11.dtd">
<svg xmlns="http://www.w3.org/2000/svg" version="1.1" viewBox="0.00 0.00 512.00 512.00">
<path stroke="#8cbbf9" stroke-width="2.00" fill="none" stroke-linecap="butt" vector-effect="non-scaling-stroke" d="
  M 296.01 508.87
  L 296.00 330.50
  Q 296.00 330.00 296.51 330.00
  L 354.91 330.00
  A 0.78 0.78 0.0 0 0 355.68 329.34
  L 366.83 256.72
  A 0.63 0.63 0.0 0 0 366.21 256.00
  L 296.51 256.00
  A 0.52 0.52 0.0 0 1 295.99 255.48
  Q 295.96 230.39 296.20 205.25
  C 296.43 181.81 312.64 168.29 335.25 168.11
  Q 352.22 167.97 369.00 168.01
  A 0.99 0.99 0.0 0 0 369.99 167.02
  L 370.00 105.49
  Q 370.00 105.09 369.61 105.03
  Q 342.16 100.60 314.25 100.18
  C 277.96 99.63 243.62 113.37 226.99 147.91
  C 219.21 164.08 216.00 181.33 216.00 199.25
  Q 216.01 227.36 215.96 255.30
  A 0.70 0.70 0.0 0 1 215.26 256.00
  L 151.50 256.00
  A 0.50 0.50 0.0 0 0 151.00 256.50
  L 151.00 329.00
  A 0.99 0.99 0.0 0 0 151.99 329.99
  L 215.25 330.01
  Q 215.99 330.01 215.99 330.74
  L 215.99 508.84"
/>
<path fill="#1877f2" d="
  M 248.40 0.00
  L 263.48 0.00
  C 338.40 2.56 408.25 37.07 454.80 94.73
  Q 508.62 161.38 512.00 248.64
  L 512.00 261.23
  C 508.92 382.44 423.66 483.39 305.22 507.10
  Q 300.93 507.96 296.01 508.87
  L 296.00 330.50
  Q 296.00 330.00 296.51 330.00
  L 354.91 330.00
  A 0.78 0.78 0.0 0 0 355.68 329.34
  L 366.83 256.72
  A 0.63 0.63 0.0 0 0 366.21 256.00
  L 296.51 256.00
  A 0.52 0.52 0.0 0 1 295.99 255.48
  Q 295.96 230.39 296.20 205.25
  C 296.43 181.81 312.64 168.29 335.25 168.11
  Q 352.22 167.97 369.00 168.01
  A 0.99 0.99 0.0 0 0 369.99 167.02
  L 370.00 105.49
  Q 370.00 105.09 369.61 105.03
  Q 342.16 100.60 314.25 100.18
  C 277.96 99.63 243.62 113.37 226.99 147.91
  C 219.21 164.08 216.00 181.33 216.00 199.25
  Q 216.01 227.36 215.96 255.30
  A 0.70 0.70 0.0 0 1 215.26 256.00
  L 151.50 256.00
  A 0.50 0.50 0.0 0 0 151.00 256.50
  L 151.00 329.00
  A 0.99 0.99 0.0 0 0 151.99 329.99
  L 215.25 330.01
  Q 215.99 330.01 215.99 330.74
  L 215.99 508.84
  C 92.99 488.86 3.41 385.57 0.00 261.62
  L 0.00 248.01
  Q 3.61 160.32 58.11 93.61
  C 104.64 36.64 174.02 2.64 248.40 0.00
  Z"
/>
<path fill="#ffffff" d="
  M 296.01 508.87
  Q 279.14 511.39 261.37 512.00
  L 250.50 512.00
  Q 232.86 511.38 215.99 508.84
  L 215.99 330.74
  Q 215.99 330.01 215.25 330.01
  L 151.99 329.99
  A 0.99 0.99 0.0 0 1 151.00 329.00
  L 151.00 256.50
  A 0.50 0.50 0.0 0 1 151.50 256.00
  L 215.26 256.00
  A 0.70 0.70 0.0 0 0 215.96 255.30
  Q 216.01 227.36 216.00 199.25
  C 216.00 181.33 219.21 164.08 226.99 147.91
  C 243.62 113.37 277.96 99.63 314.25 100.18
  Q 342.16 100.60 369.61 105.03
  Q 370.00 105.09 370.00 105.49
  L 369.99 167.02
  A 0.99 0.99 0.0 0 1 369.00 168.01
  Q 352.22 167.97 335.25 168.11
  C 312.64 168.29 296.43 181.81 296.20 205.25
  Q 295.96 230.39 295.99 255.48
  A 0.52 0.52 0.0 0 0 296.51 256.00
  L 366.21 256.00
  A 0.63 0.63 0.0 0 1 366.83 256.72
  L 355.68 329.34
  A 0.78 0.78 0.0 0 1 354.91 330.00
  L 296.51 330.00
  Q 296.00 330.00 296.00 330.50
  L 296.01 508.87
  Z"
/>
</svg>
