<?xml version="1.0" encoding="UTF-8" standalone="no"?>
<!DOCTYPE svg PUBLIC "-//W3C//DTD SVG 1.1//EN" "http://www.w3.org/Graphics/SVG/1.1/DTD/svg11.dtd">
<svg xmlns="http://www.w3.org/2000/svg" version="1.1" viewBox="0.00 0.00 512.00 512.00">
<g stroke-width="2.00" fill="none" stroke-linecap="butt">
<path stroke="#ec4524" vector-effect="non-scaling-stroke" d="
  M 256.05 0.00
  L 256.04 100.18"
/>
<path stroke="#ff9013" vector-effect="non-scaling-stroke" d="
  M 121.17 178.21
  L 34.39 128.19"
/>
<path stroke="#89c424" vector-effect="non-scaling-stroke" d="
  M 121.20 333.84
  L 34.43 383.85"
/>
<path stroke="#138c92" vector-effect="non-scaling-stroke" d="
  M 384.17 477.39
  L 334.13 390.70"
/>
<path stroke="#11a643" vector-effect="non-scaling-stroke" d="
  M 256.02 411.82
  L 256.03 512.00"
/>
</g>
<path fill="#ff4b26" d="
  M 249.39 0.00
  L 256.05 0.00
  L 256.04 100.18
  C 199.95 100.34 149.56 129.80 121.17 178.21
  L 34.39 128.19
  C 79.71 50.69 159.56 2.80 249.39 0.00
  Z"
/>
<path fill="#d93f21" d="
  M 256.05 0.00
  L 269.25 0.00
  C 274.91 0.75 281.36 0.99 286.26 1.61
  Q 362.60 11.34 421.18 60.57
  C 428.15 66.43 432.00 73.22 428.28 81.99
  Q 426.85 85.36 422.08 90.13
  Q 401.62 110.60 381.16 131.06
  C 374.77 137.45 369.85 141.42 361.14 139.02
  C 356.59 137.77 351.87 133.56 347.75 130.53
  Q 316.48 107.55 278.28 101.92
  C 271.31 100.90 263.53 100.58 256.04 100.18
  L 256.05 0.00
  Z"
/>
<path fill="#ffd500" d="
  M 34.39 128.19
  L 121.17 178.21
  Q 98.82 216.73 100.25 261.25
  Q 101.49 299.85 121.20 333.84
  L 34.43 383.85
  Q 6.47 335.54 1.28 279.86
  Q 0.51 271.64 0.00 263.37
  L 0.00 248.25
  Q 0.41 244.39 0.65 240.51
  Q 4.36 180.03 34.39 128.19
  Z"
/>
<path fill="#167ee6" d="
  M 512.00 252.13
  L 512.00 265.50
  Q 511.18 279.09 510.73 283.51
  C 502.44 365.71 455.51 436.26 384.17 477.39
  L 334.13 390.70
  Q 381.34 362.33 401.32 311.90
  A 0.26 0.26 0.0 0 0 401.08 311.54
  Q 343.95 311.55 286.91 311.54
  C 278.43 311.54 271.89 309.40 268.58 301.50
  Q 267.18 298.16 267.18 291.31
  Q 267.18 260.93 267.20 230.57
  C 267.20 222.40 269.66 216.08 277.25 212.89
  Q 280.58 211.49 287.45 211.49
  Q 386.78 211.48 486.11 211.49
  Q 495.94 211.49 499.68 213.05
  Q 507.04 216.12 509.01 224.75
  Q 511.29 234.69 512.00 252.13
  Z"
/>
<path fill="#12b347" d="
  M 121.20 333.84
  C 149.57 382.10 199.88 411.64 256.02 411.82
  L 256.03 512.00
  L 249.51 512.00
  C 159.56 508.75 79.45 461.58 34.43 383.85
  L 121.20 333.84
  Z"
/>
<path fill="#0f993e" d="
  M 334.13 390.70
  L 384.17 477.39
  Q 383.60 478.10 382.66 478.63
  Q 339.61 502.96 290.99 509.76
  Q 283.70 510.78 268.87 512.00
  L 256.03 512.00
  L 256.02 411.82
  C 263.47 411.43 271.28 411.08 278.29 410.06
  Q 301.34 406.70 320.70 397.46
  Q 323.70 396.03 334.13 390.70
  Z"
/>
</svg>
