<?xml version="1.0" encoding="UTF-8" standalone="no"?>
<!DOCTYPE svg PUBLIC "-//W3C//DTD SVG 1.1//EN" "http://www.w3.org/Graphics/SVG/1.1/DTD/svg11.dtd">
<svg xmlns="http://www.w3.org/2000/svg" version="1.1" viewBox="0.00 0.00 500.00 500.00">
<path fill="#ffffff" d="
  M 205.15 232.97
  L 205.17 267.20
  A 0.35 0.35 0.0 0 0 205.34 267.50
  L 257.88 297.85
  A 0.35 0.35 0.0 0 1 257.88 298.46
  L 177.71 343.93
  A 0.35 0.35 0.0 0 1 177.37 343.93
  L 129.04 316.06
  A 0.35 0.35 0.0 0 1 128.86 315.76
  L 128.85 52.90
  A 0.35 0.35 0.0 0 1 129.02 52.60
  L 204.22 8.43
  A 0.35 0.35 0.0 0 1 204.58 8.43
  L 394.81 118.42
  A 0.35 0.35 0.0 0 1 394.98 118.72
  L 395.00 142.42
  A 0.35 0.35 0.0 0 1 394.82 142.72
  L 304.59 194.82
  A 0.35 0.35 0.0 0 0 304.59 195.42
  L 394.82 247.73
  A 0.35 0.35 0.0 0 1 394.99 248.03
  L 394.99 271.71
  A 0.35 0.35 0.0 0 1 394.82 272.01
  L 177.72 397.47
  A 0.35 0.35 0.0 0 1 177.36 397.47
  L 129.03 369.46
  A 0.35 0.35 0.0 0 1 128.86 369.16
  L 128.90 349.71
  A 0.35 0.35 0.0 0 1 129.42 349.41
  L 177.39 377.05
  A 0.35 0.35 0.0 0 0 177.74 377.05
  L 317.29 296.34
  A 0.35 0.35 0.0 0 0 317.29 295.73
  L 205.67 232.67
  A 0.35 0.35 0.0 0 0 205.15 232.97
  Z
  M 205.72 102.18
  A 0.39 0.39 0.0 0 0 205.13 102.52
  L 205.20 137.92
  A 0.39 0.39 0.0 0 0 205.39 138.25
  L 286.24 184.93
  A 0.39 0.39 0.0 0 0 286.64 184.93
  L 317.25 167.14
  A 0.39 0.39 0.0 0 0 317.25 166.46
  L 205.72 102.18
  Z"
/>
<path fill="#d9d9d9" d="
  M 394.87 293.00
  L 394.92 312.61
  A 0.31 0.31 0.0 0 1 394.76 312.88
  L 177.63 438.33
  A 0.31 0.31 0.0 0 1 177.33 438.33
  L 129.01 410.48
  A 0.31 0.31 0.0 0 1 128.85 410.21
  L 128.92 390.55
  A 0.31 0.31 0.0 0 1 129.38 390.29
  L 177.41 417.94
  A 0.31 0.31 0.0 0 0 177.71 417.94
  L 394.41 292.73
  A 0.31 0.31 0.0 0 1 394.87 293.00
  Z"
/>
<path fill="#d9d9d9" d="
  M 177.70 458.77
  L 394.42 333.54
  A 0.33 0.33 0.0 0 1 394.91 333.82
  L 394.92 353.42
  A 0.33 0.33 0.0 0 1 394.76 353.71
  L 177.70 479.13
  A 0.33 0.33 0.0 0 1 177.36 479.13
  L 129.01 451.10
  A 0.33 0.33 0.0 0 1 128.84 450.81
  L 128.92 431.39
  A 0.33 0.33 0.0 0 1 129.41 431.10
  L 177.37 458.77
  A 0.33 0.33 0.0 0 0 177.70 458.77
  Z"
/>
</svg>
